#!OML:ASF F:\VICON\USERDATA\INSTALL\rory3\rory3.ASF
:FULLY-SPECIFIED
:DEGREES
93
root 1.1761226126537148 17.795251205225295 50.31236487165911 -3.718368712325222 -2.7340485137625343 -1.920582556180647
lfemur -1.6384210115549998 -0.32426676860394865 -16.86050691218606
ltibia 52.475596402813906
lfoot -6.223798959709022 -1.1534966118815824
ltoes -6.107905708991765
rfemur -15.454016298239432 2.2957887136707136 25.523568204413593
rtibia 29.916606100020175
rfoot -16.219912266062003 -10.916011856756679
rtoes 1.8798995819488928
lowerback 9.439399838798968 -1.071963252827005 0.40737707141218704
upperback 0.07316821338802276 -1.1968940088048834 1.9350662332190025
thorax -5.23133330758473 -0.6233550428030914 2.2421480727319363
lowerneck -16.625348197536457 -2.758491357098171 -1.5914033935785064
upperneck 21.58257876280457 -3.4065477845247196 0.030292698606570356
head 9.571554738849516 -1.7196675341695618 -0.10689417711153239
lclavicle 3.2466054588095616e-16 -8.619524677786843e-16
lhumerus -29.543523095480836 1.9281056953830848 80.43032155074836
lradius 22.916258826611188
lwrist 7.864891379670549
lhand -28.22892204610053 20.02711623879439
lfingers nan
lthumb -1.577747500773143 50.005151691488955
rclavicle 4.054277283550082e-16 -8.050792921951347e-16
rhumerus -31.305302205663217 -22.488457561515265 -76.7989681305226
rradius 33.38175866206303
rwrist 2.2878063048681474
rhand -18.117331131294254 20.716627407170034
rfingers nan
rthumb 8.569063929908557 -8.037251261193893
94
root 1.1502568272545612 17.776407735289514 49.57442140080039 -4.232435746540434 -2.8299938322802434 -1.501505363888352
lfemur -4.45436799014152 0.12293818919242949 -16.70380027371657
ltibia 55.26302010562091
lfoot -6.071329496506598 0.3134103079117878
ltoes -7.062849374193073
rfemur -13.67186465747788 2.007770806705567 24.976598248981855
rtibia 30.079911592178316
rfoot -17.484481557766124 -11.578752723704547
rtoes 0.8165011011962995
lowerback 9.433782886246362 -0.8667899910107961 0.30152261583818474
upperback 0.08849786148488228 -0.9431063257488667 1.8274581149209546
thorax -5.21036851818524 -0.5057398990188013 2.001871052314753
lowerneck -16.667001064992732 -2.8087443633308755 -1.4692811502556995
upperneck 21.397644708236168 -3.4980262741772457 0.012743982564076273
head 9.515740020194881 -1.7591210925231575 -0.16393928436273658
lclavicle 3.2724842985544265e-16 -8.609851124459593e-16
lhumerus -30.058734039575803 2.1381005291292747 80.5633985711501
lradius 22.73002828378432
lwrist 8.091704496147173
lhand -28.342188233278172 19.906558278897933
lfingers nan
lthumb -1.689398980264738 49.90004677351473
rclavicle 4.083563848631033e-16 -8.036733099151863e-16
rhumerus -30.67807245557651 -22.27047883007459 -76.73584155605475
rradius 33.31390905393189
rwrist 2.177586514604563
rhand -18.09148059989298 20.785292806601376
rfingers nan
rthumb 8.589677426241712 -7.9583324325586275
95
root 1.1484038802355143 17.766428812000022 49.70068370317495 -4.2835213754420325 -2.630762408686945 -2.358348659454006
lfemur -7.3240056581738795 0.3796814667603392 -15.631818871902155
ltibia 56.71656349118584
lfoot -7.070346992591557 -0.35874831928512396
ltoes -7.543836736692276
rfemur -11.701510269190921 1.9349099841546311 25.68881713192739
rtibia 30.21281934386144
rfoot -17.96883503665599 -11.764306704681475
rtoes -0.32292606281225567
lowerback 9.3861441892269 -0.6678029060025066 1.1974169220569082
upperback 0.058901666731386706 -0.531883664963588 1.8402777439323188
thorax -5.273027137265439 -0.29525723670160103 1.633911078891693
lowerneck -16.67505134995424 -2.873771950877125 -1.358977911612874
upperneck 21.251240512815013 -3.6130724349167798 -0.009901091455958078
head 9.480097975924602 -1.8071253810529155 -0.23256764065732582
lclavicle 3.3090897629300236e-16 -8.594727327582374e-16
lhumerus -30.58999567871368 2.38439348707797 80.65071246161438
lradius 22.685896439963926
lwrist 8.31021614295571
lhand -28.478183943618415 19.83118414900163
lfingers nan
lthumb -1.8480599978507064 49.783439065031104
rclavicle 4.1285059587708576e-16 -8.013051486414225e-16
rhumerus -29.911441432180013 -21.74471552432897 -76.75855490630734
rradius 33.25238714258149
rwrist 2.0759811248890125
rhand -18.136203542754693 20.690661038637565
rfingers nan
rthumb 8.588862429797539 -7.922578468120642
96
root 1.1621550218888297 17.784379535032514 50.51815935130675 -3.7464663162245397 -2.2893641823146553 -3.465578750354574
lfemur -10.296069852698302 0.5006177049364655 -14.546380326420529
ltibia 56.7961033139538
lfoot -8.603549033092156 0.15195343877525103
ltoes -6.754174771978015
rfemur -8.620625743810628 2.2616713902936776 27.057314630179683
rtibia 29.419808283426544
rfoot -17.625070851871953 -11.61234540089352
rtoes -1.3119529902081788
lowerback 9.25743537204561 -0.47125441200065227 2.401804618269934
upperback 0.005817459299802624 -0.04313743189700703 1.8671640802583154
thorax -5.375241898085556 -0.03864872648748663 1.2214780024680016
lowerneck -16.649986292162545 -2.9476948467768453 -1.2432316287995624
upperneck 21.160734217983087 -3.742819767641343 -0.04091621382048538
head 9.465070725371026 -1.8603250770663784 -0.30675624000604534
lclavicle 3.3909523095110006e-16 -8.551245169566668e-16
lhumerus -31.137034988440302 2.790592106332728 80.68711065172828
lradius 22.759256037442306
lwrist 8.479826909329768
lhand -28.619537963887577 19.72056287990866
lfingers nan
lthumb -1.9811010947643413 49.69257422434708
rclavicle 4.174949765472854e-16 -7.99132861321747e-16
rhumerus -29.05143970996795 -20.95292483212669 -76.7566801814324
rradius 33.22035598802744
rwrist 1.9779756750329525
rhand -18.10831528127465 20.7713962255683
rfingers nan
rthumb 8.60680189981757 -7.833659252509048
